<?xml version="1.0" encoding="UTF-8" standalone="no"?>
<!-- Created with Inkscape (http://www.inkscape.org/) -->

<svg
   version="1.1"
   id="svg1"
   width="25.854668"
   height="26.754665"
   viewBox="0 0 25.854668 26.754665"
   xmlns="http://www.w3.org/2000/svg"
   xmlns:svg="http://www.w3.org/2000/svg">
  <defs
     id="defs1">
    <clipPath
       clipPathUnits="userSpaceOnUse"
       id="clipPath260">
      <path
         d="M 0,283.465 H 425.185 V 0 H 0 Z"
         transform="translate(-167.83011,-217.82201)"
         id="path260" />
    </clipPath>
    <clipPath
       clipPathUnits="userSpaceOnUse"
       id="clipPath262">
      <path
         d="M 0,283.465 H 425.185 V 0 H 0 Z"
         transform="translate(-164.42091,-215.44451)"
         id="path262" />
    </clipPath>
    <clipPath
       clipPathUnits="userSpaceOnUse"
       id="clipPath264">
      <path
         d="M 0,283.465 H 425.185 V 0 H 0 Z"
         transform="translate(-168.79491,-215.50851)"
         id="path264" />
    </clipPath>
  </defs>
  <g
     id="layer-MC0"
     transform="translate(-207.18254,-77.854001)">
    <path
       id="path259"
       d="m 0,0 c -0.081,-0.163 -0.16,-0.302 -0.245,-0.431 -0.107,-0.161 -0.202,-0.293 -0.302,-0.413 -0.312,-0.389 -0.622,-0.73 -0.92,-1.013 -0.294,-0.281 -0.668,-0.61 -1.11,-0.977 L -2.933,-3.14 C -3.345,-3.492 -3.68,-3.798 -3.928,-4.048 -4.172,-4.294 -4.419,-4.613 -4.663,-4.996 -4.896,-5.361 -5.035,-6.065 -5.088,-6.377 h 0.966 c 0.079,0.158 0.156,0.294 0.239,0.42 0.046,0.069 0.094,0.139 0.144,0.207 0.051,0.07 0.103,0.139 0.158,0.206 0.079,0.097 0.156,0.191 0.234,0.282 0.232,0.272 0.462,0.518 0.685,0.731 0.294,0.28 0.668,0.609 1.111,0.977 l 0.356,0.304 c 0.412,0.353 0.746,0.659 0.996,0.91 0.242,0.244 0.489,0.563 0.734,0.947 0.232,0.364 0.371,1.069 0.421,1.355 l -0.025,0.027 z"
       style="fill:#ffffff;fill-opacity:1;fill-rule:nonzero;stroke:none"
       transform="matrix(1.3333333,0,0,-1.3333333,223.77347,87.524)"
       clip-path="url(#clipPath260)" />
    <path
       id="path261"
       d="M 0,0 0.615,0.538 C 1.054,0.912 1.405,1.232 1.659,1.49 1.81,1.642 1.971,1.838 2.14,2.071 2.252,2.226 2.347,2.366 2.438,2.51 2.485,2.587 2.528,2.664 2.569,2.741 2.73,3.041 2.84,3.338 2.893,3.627 H 1.777 C 1.679,3.479 1.589,3.356 1.494,3.242 1.182,2.854 0.873,2.512 0.575,2.229 0.281,1.949 -0.093,1.62 -0.535,1.252 L -0.892,0.947 C -1.304,0.594 -1.639,0.288 -1.887,0.038 -2.13,-0.207 -2.377,-0.526 -2.621,-0.91 -2.854,-1.275 -2.993,-1.979 -3.046,-2.291 h 0.978 c 0.116,0.225 0.246,0.424 0.384,0.593 0.305,0.37 0.573,0.669 0.794,0.887 C -0.668,-0.592 -0.368,-0.319 0,0"
       style="fill:#ffffff;fill-opacity:1;fill-rule:nonzero;stroke:none"
       transform="matrix(1.3333333,0,0,-1.3333333,219.22787,90.694)"
       clip-path="url(#clipPath262)" />
    <path
       id="path263"
       d="m 0,0 c -0.305,-0.371 -0.572,-0.669 -0.794,-0.887 -0.223,-0.219 -0.521,-0.492 -0.89,-0.811 L -2.299,-2.236 C -2.52,-2.424 -2.717,-2.598 -2.891,-2.757 -2.978,-2.836 -3.06,-2.912 -3.135,-2.983 -3.21,-3.056 -3.279,-3.124 -3.343,-3.188 -3.382,-3.228 -3.422,-3.27 -3.461,-3.313 -3.501,-3.358 -3.54,-3.404 -3.58,-3.453 -3.661,-3.55 -3.742,-3.656 -3.823,-3.769 -3.934,-3.921 -4.031,-4.065 -4.121,-4.208 -4.169,-4.285 -4.212,-4.362 -4.253,-4.439 -4.41,-4.73 -4.518,-5.021 -4.571,-5.308 c 0.002,-0.008 0.011,-0.017 0.025,-0.017 h 3.632 v 0.642 c 0,0.127 0.045,0.235 0.133,0.319 0.086,0.083 0.19,0.125 0.308,0.125 0.119,0 0.224,-0.042 0.311,-0.125 0.088,-0.085 0.132,-0.192 0.132,-0.319 v -1.086 c 0,-0.126 -0.043,-0.235 -0.129,-0.324 -0.087,-0.089 -0.196,-0.135 -0.325,-0.135 h -4.03 -0.548 c -0.06,0 -0.118,0.012 -0.17,0.035 -0.052,0.023 -0.1,0.056 -0.143,0.101 -0.021,0.021 -0.033,0.043 -0.05,0.072 -0.054,0.082 -0.079,0.164 -0.079,0.251 0,0.263 0.03,0.532 0.092,0.802 h -1.113 c -0.121,0 -0.227,0.045 -0.318,0.133 -0.091,0.089 -0.136,0.194 -0.136,0.312 0,0.39 0.065,0.834 0.185,1.264 h -1.1 c -0.119,0 -0.225,0.045 -0.316,0.133 -0.091,0.09 -0.138,0.194 -0.138,0.312 0,0.79 0.289,1.991 0.923,2.76 0.305,0.37 0.572,0.669 0.794,0.887 0.222,0.219 0.522,0.492 0.89,0.811 l 0.615,0.538 c 0.439,0.375 0.79,0.695 1.044,0.952 0.15,0.153 0.312,0.348 0.48,0.581 0.113,0.156 0.207,0.295 0.297,0.439 0.049,0.077 0.092,0.155 0.133,0.231 0.161,0.3 0.27,0.597 0.323,0.886 H -6.511 V 4.631 c 0,-0.128 -0.045,-0.235 -0.133,-0.319 -0.085,-0.083 -0.19,-0.125 -0.309,-0.125 -0.118,0 -0.223,0.042 -0.31,0.125 -0.088,0.084 -0.132,0.191 -0.132,0.319 v 1.085 c 0,0.126 0.043,0.235 0.129,0.324 0.087,0.089 0.197,0.135 0.326,0.135 h 4.577 c 0.121,0 0.226,-0.046 0.312,-0.135 0.086,-0.088 0.13,-0.197 0.13,-0.324 0,-0.424 -0.073,-0.844 -0.218,-1.25 h 1.144 c 0.12,0 0.225,-0.046 0.311,-0.135 0.086,-0.089 0.13,-0.198 0.13,-0.324 0,-0.262 -0.03,-0.531 -0.091,-0.8 h 0.216 c 0.558,0 0.792,0 0.897,-0.012 v 0.01 C 0.587,3.205 0.694,3.16 0.785,3.072 0.876,2.982 0.923,2.878 0.923,2.761 0.923,1.971 0.634,0.77 0,0 m 4.603,9.566 h -16.63 c -0.763,0 -1.381,-0.618 -1.381,-1.381 V -5.04 c 0,-0.18 0.145,-0.326 0.326,-0.326 0.18,0 0.82,-0.049 1.14,-0.562 1.712,-2.744 4.756,-4.572 8.229,-4.572 3.474,0 6.519,1.828 8.231,4.572 0.319,0.513 0.96,0.562 1.139,0.562 0.181,0 0.326,0.146 0.326,0.326 V 8.185 c 0,0.763 -0.618,1.381 -1.38,1.381"
       style="fill:#ffffff;fill-opacity:1;fill-rule:nonzero;stroke:none"
       transform="matrix(1.3333333,0,0,-1.3333333,225.05987,90.608667)"
       clip-path="url(#clipPath264)" />
  </g>
</svg>
